<?xml version="1.0" encoding="utf-8"?>
<!-- Generator: Adobe Illustrator 21.1.0, SVG Export Plug-In . SVG Version: 6.00 Build 0)  -->
<svg version="1.1" id="Layer_1" xmlns="http://www.w3.org/2000/svg" xmlns:xlink="http://www.w3.org/1999/xlink" x="0px" y="0px"
	 viewBox="0 0 100 100" style="enable-background:new 0 0 100 100;" xml:space="preserve">
<style type="text/css">
	.st0{fill:#FFFFFF;enable-background:new    ;}
</style>
<path class="st0" d="M100,53.2L100,53.2c0,1.9-0.7,3.1-1.8,3.1H78.6c-0.7,0-1.4-0.9-1.6-2.2l-5.5-28.4L66,54.4
	c-0.2,0.9-0.7,1.9-1.6,1.9c-0.7,0-1.4-0.6-1.8-1.9l-5-20l-9.3,63.4c-0.2,1.2-0.9,2.2-1.8,2.2l0,0c-0.9,0-1.6-1.2-1.6-2.5l-7.7-79.6
	l-6.8,42.5c-0.2,1.2-0.9,2.2-1.6,2.2S27.3,61.9,27,61l-4.3-15l-5.4,9.4c-0.4,0.6-0.7,0.9-1.3,0.9H1.8C0.7,56.3,0,55,0,53.2l0,0
	C0,51.3,0.7,50,1.8,50h13.6L22,38.5c0.4-0.6,1.1-0.9,1.6-0.9c0.5,0.3,1.1,0.9,1.3,1.6L28,50.7l7.7-48.4c0.2-1.6,1.1-2.5,1.8-2.2
	c0.9,0,1.6,1.2,1.6,2.5l7.5,79.3l8.8-57.8c0.2-1.2,0.9-2.2,1.6-2.2s1.4,0.6,1.8,1.9l5.4,20.6l5.7-30c0.2-1.2,0.9-2.2,1.6-2.2
	s1.4,0.9,1.6,2.2L79.8,50h18.4C99.3,50,100,51.3,100,53.2z"/>
</svg>
