<?xml version="1.0" encoding="utf-8"?>
<!-- Generator: Adobe Illustrator 21.1.0, SVG Export Plug-In . SVG Version: 6.00 Build 0)  -->
<svg version="1.1" id="Layer_1" xmlns="http://www.w3.org/2000/svg" xmlns:xlink="http://www.w3.org/1999/xlink" x="0px" y="0px"
	 viewBox="0 0 100 100" style="enable-background:new 0 0 100 100;" xml:space="preserve">
<style type="text/css">
	.st0{fill:#FFFFFF;enable-background:new    ;}
</style>
<path class="st0" d="M97.8,14.9V8.8C97.8,3.9,93,0,87.2,0H55.4c-1.1,0-2,0.8-2,1.7s0.9,1.7,2,1.7h31.9c3.6,0,6.6,2.4,6.6,5.4V15h-4
	v-5c0-1.8-1.8-3.3-4-3.3H75.5c-1.1,0-2,0.8-2,1.7s0.9,1.7,2,1.7H86v5c-1.1,0-1.9,0.8-1.9,1.7v43.3L59.2,43.8
	c-0.6-0.4-1.4-0.5-2.1-0.2c-0.7,0.3-1.1,0.8-1.1,1.5v14.7l-24.6-16c-0.6-0.4-1.4-0.5-2.1-0.2s-1.1,0.8-1.1,1.5v14.7l-24.7-16
	c-0.6-0.4-1.4-0.5-2.1-0.2s-1.1,0.8-1.1,1.5v53.2c0,0.9,0.9,1.7,2,1.7h31.6h32.3h31.6c1.1,0,2-0.8,2-1.7V16.6
	C99.8,15.7,98.9,14.9,97.8,14.9z M64.2,96.7H35.8V85.2h28.3L64.2,96.7L64.2,96.7z M95.8,96.7H68.2V83.6c0-0.9-0.9-1.7-2-1.7H33.8
	c-1.1,0-2,0.8-2,1.7v13.1H4.2V48.5l24.7,16c0.6,0.4,1.4,0.5,2.1,0.2s1.1-0.8,1.1-1.5V48.5l24.7,16c0.6,0.4,1.4,0.5,2.1,0.2
	c0.7-0.3,1.1-0.8,1.1-1.5V48.5l24.7,16c0.6,0.4,1.4,0.5,2.1,0.2s1.1-0.8,1.1-1.5v-45h7.9C95.8,18.3,95.8,96.7,95.8,96.7z"/>
</svg>
