<?xml version="1.0" encoding="utf-8"?>
<!-- Generator: Adobe Illustrator 21.1.0, SVG Export Plug-In . SVG Version: 6.00 Build 0)  -->
<svg version="1.1" id="Layer_1" xmlns="http://www.w3.org/2000/svg" xmlns:xlink="http://www.w3.org/1999/xlink" x="0px" y="0px"
	 viewBox="0 0 100 100" style="enable-background:new 0 0 100 100;" xml:space="preserve">
<style type="text/css">
	.st0{fill:#FFFFFF;}
</style>
<title>41 -Crane- (Outline)</title>
<desc>Created with Sketch.</desc>
<g>
	<g transform="translate(-118.000000, -829.000000)">
		<g transform="translate(117.000000, 829.000000)">
			<path class="st0" d="M72.7,70V18.7l5-15.3h3.2L86,18.7V70H72.7z M87.7,73.3c1,0,1.7-0.7,1.7-1.7V18.3c0-0.2,0-0.3-0.2-0.5
				L83.7,1.2C83.5,0.5,82.8,0,82.2,0h-5.5c-0.7,0-1.3,0.5-1.5,1.2l-5.5,16.7c0,0.2-0.2,0.3-0.2,0.5v53.3c0,1,0.7,1.7,1.7,1.7
				L87.7,73.3L87.7,73.3z"/>
			<path class="st0" d="M51,100h48.3c1,0,1.7-0.7,1.7-1.7s-0.7-1.7-1.7-1.7H51c-1,0-1.7,0.7-1.7,1.7C49.4,99.3,50,100,51,100z"/>
			<path class="st0" d="M88.7,28.7L72,17c-0.8-0.5-1.8-0.3-2.3,0.3c-0.5,0.8-0.3,1.8,0.3,2.3l16.7,11.7c0.8,0.5,1.8,0.3,2.3-0.3
				C89.5,30.2,89.3,29.2,88.7,28.7z"/>
			<path class="st0" d="M72,31.3l16.7-11.7c0.8-0.5,1-1.5,0.3-2.3c-0.5-0.8-1.5-1-2.3-0.3L70,28.7c-0.8,0.5-1,1.5-0.3,2.3
				C70.2,31.7,71.2,31.8,72,31.3z"/>
			<path class="st0" d="M88.7,40.3L72,28.7c-0.8-0.5-1.8-0.3-2.3,0.3c-0.5,0.8-0.3,1.8,0.3,2.3L86.7,43c0.8,0.5,1.8,0.3,2.3-0.3
				C89.5,41.8,89.3,40.8,88.7,40.3z"/>
			<path class="st0" d="M72,43l16.7-11.7c0.8-0.5,1-1.5,0.3-2.3c-0.5-0.8-1.5-1-2.3-0.3L70,40.3c-0.8,0.5-1,1.5-0.3,2.3
				C70.2,43.3,71.2,43.5,72,43z"/>
			<path class="st0" d="M88.7,52L72,40.3c-0.8-0.5-1.8-0.3-2.3,0.3c-0.5,0.8-0.3,1.8,0.3,2.3l16.7,11.7c0.8,0.5,1.8,0.3,2.3-0.3
				S89.3,52.5,88.7,52z"/>
			<path class="st0" d="M72,54.7L88.7,43c0.8-0.5,1-1.5,0.3-2.3c-0.5-0.8-1.5-1-2.3-0.3L70,52c-0.8,0.5-1,1.5-0.3,2.3
				C70.4,55.2,71.2,55.2,72,54.7z"/>
			<path class="st0" d="M88.7,63.7L72,52c-0.8-0.5-1.8-0.3-2.3,0.3c-0.5,0.8-0.3,1.8,0.3,2.3l16.7,11.7c0.8,0.5,1.8,0.3,2.3-0.3
				C89.5,65.3,89.3,64.2,88.7,63.7z"/>
			<path class="st0" d="M72,66.3l16.7-11.7c0.8-0.5,1-1.5,0.3-2.3c-0.5-0.8-1.5-1-2.3-0.3L70,63.7c-0.8,0.5-1,1.5-0.3,2.3
				C70.4,66.8,71.2,66.8,72,66.3z"/>
			<path class="st0" d="M69.4,20v13.3H13.7L5.7,20H69.4z M2.7,16.7c-1.3,0-2.2,1.3-1.5,2.5l10,16.7c0.3,0.5,0.8,0.8,1.5,0.8H71
				c1,0,1.7-0.7,1.7-1.7V18.3c0-1-0.7-1.7-1.7-1.7H2.7V16.7z"/>
			<path class="st0" d="M32.4,17.3c-0.7-0.8-2-0.8-2.7,0L16.4,34c-0.5,0.7-0.5,1.8,0.3,2.3s1.8,0.5,2.3-0.3l12-15l12,15
				c0.7,0.8,2,0.8,2.7,0L59,19.3c0.5-0.7,0.5-1.8-0.3-2.3c-0.7-0.5-1.8-0.5-2.3,0.3l-12,15L32.4,17.3z"/>
			<path class="st0" d="M19.1,17.3c-0.5-0.7-1.7-0.8-2.3-0.3c-0.7,0.5-0.8,1.7-0.3,2.3L29.7,36c0.7,0.8,2,0.8,2.7,0l12-15l12,15
				c0.5,0.7,1.7,0.8,2.3,0.3c0.7-0.5,0.8-1.7,0.3-2.3L45.7,17.3c-0.7-0.8-2-0.8-2.7,0l-12,15L19.1,17.3z"/>
			<path class="st0" d="M45.7,17.3c-0.5-0.7-1.7-0.8-2.3-0.3c-0.7,0.5-0.8,1.7-0.3,2.3L56.4,36c0.7,0.8,2,0.8,2.7,0l13.3-16.7
				c0.5-0.7,0.5-1.8-0.3-2.3c-0.7-0.5-1.8-0.5-2.3,0.3l-12,15L45.7,17.3z"/>
			<path class="st0" d="M69.7,36c0.5,0.7,1.7,0.8,2.3,0.3c0.7-0.5,0.8-1.7,0.3-2.3L59,17.3c-0.7-0.8-2-0.8-2.7,0L43,34
				c-0.5,0.7-0.5,1.8,0.3,2.3c0.7,0.5,1.8,0.5,2.3-0.3l12-15L69.7,36z"/>
			<path class="st0" d="M24.4,40v-5c0-1-0.7-1.7-1.7-1.7S21,34,21,35v5c0,1,0.7,1.7,1.7,1.7C23.7,41.7,24.4,41,24.4,40z"/>
			<path class="st0" d="M19.4,51.7h6.7c1,0,1.7-0.7,1.7-1.7v-2c0-3.5-1.3-6.8-3.8-9.2c-0.7-0.7-1.7-0.7-2.3,0
				c-2.5,2.5-3.8,5.8-3.8,9.2v2C17.7,51,18.4,51.7,19.4,51.7z M21.1,48c0-2,0.7-3.8,1.7-5.5c1,1.7,1.7,3.5,1.7,5.5v0.3h-3.3V48H21.1
				z"/>
			<path class="st0" d="M21.1,50v5c0,1,0.7,1.7,1.7,1.7s1.7-0.7,1.7-1.7v-5c0-1-0.7-1.7-1.7-1.7C21.7,48.3,21.1,49,21.1,50z"/>
			<path class="st0" d="M22.7,63.3c-1.8,0-3.3-1.5-3.3-3.3s1.5-3.3,3.3-3.3c1,0,1.7-0.7,1.7-1.7s-0.7-1.7-1.7-1.7
				c-3.7,0-6.7,3-6.7,6.7s3,6.7,6.7,6.7c1,0,1.7-0.7,1.7-1.7S23.7,63.3,22.7,63.3z"/>
			<path class="st0" d="M7.7,93.3h30c1,0,1.7-0.7,1.7-1.7V78.3c0-1-0.7-1.7-1.7-1.7h-30c-1,0-1.7,0.7-1.7,1.7v13.3
				C6.1,92.7,6.7,93.3,7.7,93.3z M9.4,80H36v10H9.4V80z"/>
			<path class="st0" d="M12.7,80h20c1.3,0,2.2-1.5,1.3-2.7L24.1,64c-0.7-0.8-2-0.8-2.7,0l-10,13.3C10.6,78.5,11.4,80,12.7,80z
				 M22.7,67.8l6.7,8.8H16.1L22.7,67.8z"/>
			<path class="st0" d="M62.7,100H96c1,0,1.7-0.7,1.7-1.7V85c0-1-0.7-1.7-1.7-1.7H62.7c-1,0-1.7,0.7-1.7,1.7v13.3
				C61,99.3,61.7,100,62.7,100z M64.4,86.7h30v10h-30V86.7z"/>
			<path class="st0" d="M66,86.7h26.6c1,0,1.7-0.7,1.7-1.7V71.7c0-1-0.7-1.7-1.7-1.7H66c-1,0-1.7,0.7-1.7,1.7V85
				C64.4,86,65,86.7,66,86.7z M67.7,83.3v-10H91v10H67.7z"/>
		</g>
	</g>
</g>
</svg>
