<?xml version="1.0" encoding="utf-8"?>
<!-- Generator: Adobe Illustrator 21.1.0, SVG Export Plug-In . SVG Version: 6.00 Build 0)  -->
<svg version="1.1" id="Layer_1" xmlns="http://www.w3.org/2000/svg" xmlns:xlink="http://www.w3.org/1999/xlink" x="0px" y="0px"
	 viewBox="0 0 100 100" style="enable-background:new 0 0 100 100;" xml:space="preserve">
<style type="text/css">
	.st0{fill:#FFFFFF;}
</style>
<g>
	<path class="st0" d="M25.1,42l-2.5,4.1l5.1,5.5l3.6-2.9c1.5,0.9,3,1.5,4.5,2l0.8,4.9l7.2-0.2l0.7-4.9c1.7-0.5,3.2-1.2,4.5-2.1
		l3.7,2.7l5-5.6l-2.6-4c0.8-1.5,1.4-3.4,1.8-5l4.4-0.9l-0.1-7.9l-4.4-0.8c-0.4-1.8-1.1-3.5-1.9-5l2.5-4.1l-5.1-5.5l-3.6,2.9
		c-1.4-0.9-3-1.5-4.5-2l-0.8-4.9l-7.2,0.2L35.5,13c-1.7,0.5-3.2,1.2-4.5,2.1l-3.7-2.6l-5,5.6l2.6,4c-0.8,1.5-1.4,3.4-1.8,5L18.7,28
		l0.1,7.9l4.4,0.8C23.6,38.8,24.3,40.5,25.1,42z M20.7,30.1l4-0.9l0.1-0.8c0.4-2,1.1-4,2.1-5.8l0.4-0.6L25,18.3l2.6-2.9l3.4,2.4
		l0.6-0.5c1.5-1.2,3.3-2,5.1-2.4l0.7-0.2l0.7-4.4h3.7l0.8,4.4l0.7,0.2c1.9,0.5,3.6,1.2,5.2,2.3l0.6,0.5l3.3-2.6L55,18l-2.5,3.7
		l0.4,0.6c1.1,1.7,1.8,3.7,2.2,5.6l0.1,0.8l4,0.8v4.1l-4,0.9l-0.1,0.8c-0.4,2-1.1,4-2.1,5.8l-0.1,0.5l2.3,3.7l-2.6,2.9l-3.4-2.4
		l-0.6,0.5c-1.5,1.2-3.3,2-5.1,2.4l-0.7,0.2l-0.6,4.4h-3.7l-0.8-4.4L37,48.7c-1.8-0.5-3.6-1.2-5.2-2.3L31.3,46L28,48.5l-2.6-2.9
		l2.2-3.8l-0.4-0.5c-1.1-1.7-1.8-3.7-2.2-5.6L24.9,35l-4-0.8L20.7,30.1z"/>
	<path class="st0" d="M39.9,43.1h0.3c5.5,0,9.9-4.7,10-10.8c0.1-6.1-4.3-11.3-9.8-11.6h-0.3c-5.5,0-9.9,4.7-10,10.8
		c-0.1,3.1,0.8,5.8,2.8,8.1C34.6,41.7,37.1,42.9,39.9,43.1z M40.1,22.9h0.3c4.4,0.2,8,4.3,7.8,9.2c-0.1,4.9-3.7,8.7-8,8.7H40
		c-2.2,0-4.1-1.1-5.6-2.7c-1.5-1.7-2.2-4-2.2-6.4C32.2,26.7,35.7,22.9,40.1,22.9z"/>
	<path class="st0" d="M74.5,0H12.8v100h74.3V13.7L74.5,0z M75.2,3.8l8.4,9.3h-8.4V3.8z M14.8,97.7V2.3h58.4v13.1H85v82.3
		C85,97.7,14.8,97.7,14.8,97.7z"/>
	<rect x="21" y="88.9" class="st0" width="52.2" height="2.3"/>
	<rect x="21" y="79.8" class="st0" width="39.8" height="2.3"/>
	<rect x="21" y="71" class="st0" width="30.7" height="2.3"/>
	<path class="st0" d="M75.9,28.7c0-2.1-1.5-4-3.6-4c-1.9,0-3.6,1.7-3.6,4v2.9H67v2.3h1.8v2.3H67v2.3h1.8v33.9l3.6,7.8l3.6-7.8V38.5
		h1.8v14.2h2.1V31.6H76L75.9,28.7L75.9,28.7z M70.8,28.7c0-0.9,0.7-1.7,1.5-1.7s1.5,0.8,1.5,1.7v2.9H71L70.8,28.7L70.8,28.7z
		 M70.8,33.9h2.9v2.3h-2.9V33.9z M72.3,75l-1.5-3.2v-0.5h2.9v0.5L72.3,75z M73.9,69H71V38.5h2.9V69z M77.7,33.9v2.3h-1.8v-2.3H77.7z
		"/>
</g>
</svg>
