<?xml version="1.0" encoding="utf-8"?>
<!-- Generator: Adobe Illustrator 21.1.0, SVG Export Plug-In . SVG Version: 6.00 Build 0)  -->
<svg version="1.1" id="Layer_1" xmlns="http://www.w3.org/2000/svg" xmlns:xlink="http://www.w3.org/1999/xlink" x="0px" y="0px"
	 viewBox="0 0 100 100" style="enable-background:new 0 0 100 100;" xml:space="preserve">
<style type="text/css">
	.st0{opacity:0.5;fill:#FFFFFF;}
</style>
<path class="st0" d="M69.9,100H30.1c-5.5,0-10-5.6-10-12.5v-75c0-6.9,4.5-12.5,10-12.5h39.8c5.5,0,10,5.6,10,12.5v74.9
	C79.9,94.4,75.4,100,69.9,100z M30.1,6.3c-2.7,0-5,2.8-5,6.3v74.9c0,3.4,2.2,6.3,5,6.3h39.8c2.7,0,5-2.8,5-6.3v-75
	c0-3.4-2.2-6.3-5-6.3H30.1V6.3z"/>
<path class="st0" d="M25.1,49.8c0,1.9-1,3.1-2.5,3.1H2.5C1,53,0,51.7,0,49.8l0,0c0-1.9,1-3.1,2.5-3.1h20.1
	C24.1,46.7,25.1,48.3,25.1,49.8L25.1,49.8z"/>
<path class="st0" d="M25.1,28.5c0,1.9-1,3.1-2.5,3.1H2.5C1,31.7,0,30.4,0,28.5l0,0c0-1.9,1-3.1,2.5-3.1h20.1
	C24.1,25.4,25.1,26.6,25.1,28.5L25.1,28.5z"/>
<path class="st0" d="M25.1,71.2c0,1.9-1,3.1-2.5,3.1H2.5C1,74.3,0,73,0,71.2l0,0C0,69.3,1,68,2.5,68h20.1
	C24.1,68,25.1,69.6,25.1,71.2L25.1,71.2z"/>
<path class="st0" d="M100,49.8c0,1.9-1,3.1-2.5,3.1H77.4c-1.5,0-2.5-1.3-2.5-3.1l0,0c0-1.9,1-3.1,2.5-3.1h20.1
	C99,46.7,100,48.3,100,49.8L100,49.8z"/>
<path class="st0" d="M100,28.5c0,1.9-1,3.1-2.5,3.1H77.4c-1.5,0-2.5-1.3-2.5-3.1l0,0c0-1.9,1-3.1,2.5-3.1h20.1
	C99,25.4,100,26.6,100,28.5L100,28.5z"/>
<path class="st0" d="M100,71.2c0,1.9-1,3.1-2.5,3.1H77.4c-1.5,0-2.5-1.3-2.5-3.1l0,0c0-1.9,1-3.1,2.5-3.1h20.1
	C99,68,100,69.6,100,71.2L100,71.2z"/>
</svg>
