<?xml version="1.0" encoding="utf-8"?>
<!-- Generator: Adobe Illustrator 21.1.0, SVG Export Plug-In . SVG Version: 6.00 Build 0)  -->
<svg version="1.1" id="Layer_1" xmlns="http://www.w3.org/2000/svg" xmlns:xlink="http://www.w3.org/1999/xlink" x="0px" y="0px"
	 viewBox="0 0 100 100" style="enable-background:new 0 0 100 100;" xml:space="preserve">
<style type="text/css">
	.st0{opacity:0.5;fill:#FFFFFF;}
</style>
<title>Artboard 31</title>
<path class="st0" d="M30.3,29.1h-8.4c-0.9,0-1.7,0.5-2.2,1.2l-9.3,15c-0.8,1.2-0.4,2.9,0.8,3.7c0.4,0.3,0.9,0.4,1.4,0.4h17.6
	c1.4,0,2.6-1.2,2.6-2.7v-15C32.9,30.3,31.7,29.1,30.3,29.1z M29.9,46.4H13.4l8.7-14.2h7.8C29.9,32.3,29.9,46.4,29.9,46.4z M93.5,15
	H51.9c-3.3,0-6,2.8-6,6.2l0,0v36.1c0,0.3-0.3,0.6-0.6,0.6l0,0c-0.2,0-0.3,0-0.4-0.2c-0.1-0.1-0.2-0.3-0.2-0.4V26.4
	c0-2.6-2.1-4.8-4.6-4.8H20.4c-2.2,0-4.2,1.1-5.3,3L2,45.9c-1,1.6-1.5,3.3-1.5,5.2v20.6c0,3.4,2.7,6.1,6,6.1H11c2,5.4,7,8.9,12.6,9
	c5.6,0,10.6-3.5,12.6-9H63c2,5.4,7,8.9,12.6,9c5.6,0,10.7-3.5,12.6-9h5.3c3.3,0,5.9-2.8,5.9-6.1V21.2C99.4,17.8,96.8,15,93.5,15z
	 M96.5,71.7c0,1.7-1.4,3-3,3h-6.4c-0.7,0-1.3,0.4-1.4,1.1c-1.3,4.7-5.4,7.9-10.1,7.9s-8.8-3.2-10.1-7.9c-0.2-0.6-0.8-1.1-1.5-1.1
	H35.1c-0.7,0-1.3,0.4-1.4,1.1c-1.3,4.7-5.4,7.9-10.1,7.9s-8.8-3.2-10.1-7.9c-0.2-0.7-0.8-1.1-1.5-1.1H6.5c-1.6,0-2.9-1.3-3-3V51.1
	c0-1.2,0.3-2.5,1-3.5l13.1-21.3c0.6-1,1.7-1.6,2.8-1.6h19.8c0.9,0,1.6,0.7,1.6,1.7v30.9c0,2.1,1.6,3.7,3.6,3.7l0,0
	c2,0,3.6-1.7,3.6-3.7l0,0V21.2c0-1.8,1.3-3.1,3-3.1h41.5c1.7,0,3,1.3,3,3.1C96.5,21.2,96.5,71.7,96.5,71.7z M75.6,65
	c-4.1,0-7.5,3.5-7.5,7.8s3.4,7.8,7.5,7.8s7.5-3.5,7.5-7.8C83,68.5,79.7,65,75.6,65z M75.6,77.4c-2.5,0.2-4.6-1.8-4.8-4.3
	s1.7-4.8,4.2-5c0.2,0,0.4,0,0.6,0c2.5,0.1,4.4,2.1,4.5,4.7C80.1,75.4,78.1,77.4,75.6,77.4L75.6,77.4z M23.6,65
	c-4.1,0-7.5,3.5-7.5,7.8c0.1,4.2,3.4,7.8,7.5,7.8s7.5-3.5,7.5-7.8C31,68.5,27.7,65,23.6,65L23.6,65z M23.6,77.4
	c-2.5-0.1-4.4-2.1-4.5-4.7c0-2.6,2-4.7,4.5-4.7c2.5,0.1,4.4,2.1,4.5,4.7C28.1,75.3,26.1,77.4,23.6,77.4L23.6,77.4z"/>
</svg>
